<?xml version="1.0" encoding="UTF-8"?>
<svg version="1.1" xmlns="http://www.w3.org/2000/svg" width="64" height="64">
<path d="M0 0 C1.17949219 0.33644531 2.35898437 0.67289063 3.57421875 1.01953125 C2.14577671 4.26342039 0.40232706 6.45775272 -2.07763672 8.9777832 C-2.82536346 9.74149734 -3.57309021 10.50521149 -4.34347534 11.29206848 C-5.15180817 12.10576401 -5.96014099 12.91945953 -6.79296875 13.7578125 C-7.62410187 14.59797409 -8.45523499 15.43813568 -9.31155396 16.30375671 C-11.06905348 18.07575454 -12.82937065 19.84496158 -14.59228516 21.61157227 C-17.2957295 24.32695719 -19.97996599 27.06042788 -22.6640625 29.79492188 C-24.37254648 31.51286462 -26.08214452 33.2297003 -27.79296875 34.9453125 C-28.59725311 35.76912918 -29.40153748 36.59294586 -30.23019409 37.44172668 C-30.98422516 38.18968002 -31.73825623 38.93763336 -32.51513672 39.70825195 C-33.17528778 40.37347366 -33.83543884 41.03869537 -34.51559448 41.72407532 C-36.42578125 43.01953125 -36.42578125 43.01953125 -38.53640747 42.84196472 C-41.15947138 41.70016018 -42.71056996 40.0205031 -44.67578125 37.95703125 C-45.73539063 36.85681641 -45.73539063 36.85681641 -46.81640625 35.734375 C-47.3475 35.16847656 -47.87859375 34.60257813 -48.42578125 34.01953125 C-45.47940235 26.72072667 -38.45957182 20.85250764 -33.11328125 15.26953125 C-32.46549713 14.59290436 -31.81771301 13.91627747 -31.15029907 13.21914673 C-21.59994816 3.43011459 -14.34610019 -2.68908056 0 0 Z " fill="#45D0FD" transform="translate(54.42578125,-1.01953125)"/>
<path d="M0 0 C-3.4808174 4.1413833 -7.01695326 8.13790851 -10.875 11.9375 C-11.65617187 12.70964844 -12.43734375 13.48179688 -13.2421875 14.27734375 C-13.82226562 14.84582031 -14.40234375 15.41429687 -15 16 C-13.68276246 18.93063519 -12.27851354 20.94715944 -9.9609375 23.1640625 C-9.38085938 23.72867188 -8.80078125 24.29328125 -8.203125 24.875 C-7.59984375 25.4525 -6.9965625 26.03 -6.375 26.625 C-5.16998011 27.77917517 -3.96921513 28.93781463 -2.7734375 30.1015625 C-2.24153809 30.61025879 -1.70963867 31.11895508 -1.16162109 31.64306641 C0 33 0 33 0 35 C-16.66665105 37.52819678 -16.66665105 37.52819678 -23.58105469 33.49414062 C-28.53262817 29.55935441 -34.00130772 24.6420689 -37 19 C-36.46691517 12.62770481 -30.08838363 7.33040822 -25.69921875 3.19921875 C-18.29827178 -2.69743151 -8.86265517 -1.24853183 0 0 Z " fill="#40CFFD" transform="translate(58,29)"/>
<path d="M0 0 C3.01015294 1.3510265 5.11967466 2.86335687 7.453125 5.1875 C8.071875 5.80367187 8.690625 6.41984375 9.328125 7.0546875 C9.96234375 7.69664063 10.5965625 8.33859375 11.25 9 C11.8996875 9.64195313 12.549375 10.28390625 13.21875 10.9453125 C13.83234375 11.56148437 14.4459375 12.17765625 15.078125 12.8125 C15.63918945 13.37582031 16.20025391 13.93914063 16.77832031 14.51953125 C18 16 18 16 18 18 C14.64675035 18.20504349 11.29512597 18.32818195 7.9375 18.4375 C6.99455078 18.49615234 6.05160156 18.55480469 5.08007812 18.61523438 C-1.89051923 18.78524894 -1.89051923 18.78524894 -5.24560547 16.41064453 C-6.97273619 14.68351381 -8.52741333 12.94662351 -10 11 C-6.78627384 7.19842719 -3.59322068 3.45501989 0 0 Z " fill="#07589C" transform="translate(40,46)"/>
<path d="M0 0 C1.1055189 0.93590504 2.20935453 1.87379858 3.3125 2.8125 C3.92738281 3.33457031 4.54226562 3.85664062 5.17578125 4.39453125 C6.85424679 5.87172469 8.43882034 7.40039131 10 9 C8.59155282 12.21524305 6.89655214 14.32183868 4.375 16.75 C3.74335937 17.36359375 3.11171875 17.9771875 2.4609375 18.609375 C1.97882812 19.06828125 1.49671875 19.5271875 1 20 C-1.85114555 18.69555432 -4.04747746 17.29447569 -6.3125 15.125 C-6.84488281 14.63257813 -7.37726562 14.14015625 -7.92578125 13.6328125 C-9 12 -9 12 -8.921875 10.0703125 C-7.71760518 7.36580825 -6.07618177 5.78683978 -3.9375 3.75 C-3.20402344 3.04359375 -2.47054688 2.3371875 -1.71484375 1.609375 C-1.14894531 1.07828125 -0.58304688 0.5471875 0 0 Z " fill="#1FBBFC" transform="translate(30,36)"/>
</svg>
